<svg width="140" height="56" viewBox="0 0 140 56" fill="none" xmlns="http://www.w3.org/2000/svg">
<path fill-rule="evenodd" clip-rule="evenodd" d="M35.5537 19.2358L35.8048 19.6842C36.121 20.2291 36.2881 20.8479 36.2891 21.4779V35.3793C36.284 36.0088 36.1172 36.6265 35.8048 37.1731L35.5357 37.6215C35.2285 38.1705 34.7753 38.6237 34.2264 38.931L22.1904 45.8906C21.6454 46.2067 21.0267 46.3738 20.3967 46.3749H19.8944C19.2635 46.3808 18.643 46.2133 18.1007 45.8906L6.04681 38.9489C5.50956 38.6264 5.05988 38.1767 4.73739 37.6395L4.48626 37.191C4.17011 36.646 4.00307 36.0274 4.00195 35.3973V21.4958C4.00307 20.8658 4.17011 20.2471 4.48626 19.7021L4.73739 19.2537C5.05175 18.7102 5.50326 18.2586 6.04681 17.9443L18.0827 10.9846C18.6278 10.6684 19.2464 10.5014 19.8765 10.5002H20.3967C21.0267 10.5014 21.6454 10.6684 22.1904 10.9846L34.2264 17.9263C34.773 18.2427 35.2298 18.6934 35.5537 19.2358ZM20.3967 14.0876H19.8765L9.38318 20.1505L20.1455 26.3567L30.908 20.1505L20.3967 14.0876ZM32.4326 35.8279L21.9393 41.8907V29.478L32.7016 23.2538V35.3794L32.4326 35.8279ZM83.0652 37.0477H79.3457V17.4171H83.0652V37.0477ZM49.502 37.4685H53.6605V30.3395H55.4686L59.8855 37.4685H64.3282L59.4465 29.6163C61.6162 28.9706 63.2434 27.4982 63.2434 24.7086V24.6053C63.2434 20.7825 60.4797 19.0002 56.1144 19.0002H49.502V37.4685ZM53.6605 27.4982V22.2032H56.011C58.0258 22.2032 59.1623 22.8489 59.1623 24.7344V24.8378C59.1623 26.6201 58.1033 27.4982 56.011 27.4982H53.6605ZM71.0825 37.3312C74.7762 37.3312 77.1008 35.7039 77.5399 32.7851H74.0013C73.7688 33.9216 72.9164 34.6707 71.1859 34.6707C69.1453 34.6707 67.9313 33.3792 67.828 31.1321H77.5658V30.0989C77.5658 25.2686 74.4662 23.2281 70.9792 23.2281C67.0531 23.2281 64.0309 25.9919 64.0309 30.2538V30.4604C64.0309 34.7741 67.0014 37.3312 71.0825 37.3312ZM67.8796 28.8332C68.1637 26.9218 69.3003 25.8111 70.9792 25.8111C72.7615 25.8111 73.7947 26.7926 73.9238 28.8332H67.8796ZM90.2004 37.3323C92.422 37.3323 93.7905 36.2991 94.4879 34.9301V37.0482H98.2075V23.5392H94.4879V31.4689C94.4879 33.4579 93.248 34.4394 91.673 34.4394C90.0718 34.4394 89.3219 33.5611 89.3219 31.7272V23.5392H85.6028V32.2438C85.6028 35.7825 87.5658 37.3323 90.2004 37.3323ZM104.493 37.047H100.747V23.5381H104.493V25.6045C105.164 24.3388 106.61 23.2281 108.625 23.2281C110.408 23.2281 111.751 23.9772 112.396 25.5787C113.481 23.9513 115.238 23.2281 116.942 23.2281C119.448 23.2281 121.385 24.8038 121.385 28.3941V37.047H117.666V28.8074C117.666 27.0767 116.89 26.3018 115.547 26.3018C114.101 26.3018 112.939 27.2318 112.939 29.0657V37.047H109.219V28.8074C109.219 27.0767 108.419 26.3018 107.101 26.3018C105.655 26.3018 104.493 27.2318 104.493 29.0657V37.047ZM130.033 37.3312C133.728 37.3312 136.053 35.7039 136.491 32.7851H132.952C132.72 33.9216 131.867 34.6707 130.137 34.6707C128.096 34.6707 126.883 33.3792 126.779 31.1321H136.517V30.0989C136.517 25.2686 133.417 23.2281 129.93 23.2281C126.004 23.2281 122.982 25.9919 122.982 30.2538V30.4604C122.982 34.7741 125.952 37.3312 130.033 37.3312ZM126.831 28.8332C127.115 26.9218 128.252 25.8111 129.93 25.8111C131.713 25.8111 132.746 26.7926 132.875 28.8332H126.831Z" fill="black"/>
</svg>
