<svg width="140" height="56" viewBox="0 0 140 56" fill="none" xmlns="http://www.w3.org/2000/svg">
<path fill-rule="evenodd" clip-rule="evenodd" d="M38.5722 16.7501L27.0627 39.2501H16.252L21.0687 29.9251H20.8526C16.8788 35.0836 10.9498 38.4795 2.50195 39.2501V30.0542C2.50195 30.0542 7.90627 29.735 11.0833 26.3948H2.50195V16.7503H12.1465V24.6828L12.3629 24.6819L16.3041 16.7503H23.598V24.6325L23.8143 24.6321L27.9033 16.7501H38.5722Z" fill="black"/>
<path d="M101.335 36.7666H104.441V18.9376H101.335V36.7666Z" fill="black"/>
<path fill-rule="evenodd" clip-rule="evenodd" d="M84.2111 36.5846C84.8861 36.8652 85.5726 37.0056 86.2705 37.0056C87.4234 37.0056 88.455 36.7249 89.3653 36.1636C90.2754 35.6023 90.9809 34.8287 91.4815 33.8426C91.9821 32.8489 92.2324 31.7224 92.2324 30.4633C92.2324 29.2042 91.9745 28.0778 91.4588 27.0842C90.9429 26.0905 90.2261 25.3206 89.3083 24.7745C88.3905 24.2208 87.3475 23.9477 86.1794 23.9553C85.4361 23.9553 84.7231 24.0994 84.0404 24.3876C83.3578 24.6759 82.7889 25.0855 82.3338 25.6164C82.2986 25.6569 82.2645 25.6977 82.2314 25.7389V18.9491H79.1139V36.7667H82.2086L82.2024 35.1022C82.2824 35.2003 82.368 35.2962 82.4589 35.3899C82.9519 35.8982 83.536 36.2963 84.2111 36.5846ZM87.3969 33.7061C86.8886 34.0171 86.3084 34.1726 85.656 34.1726C85.0113 34.1726 84.4196 34.0132 83.8811 33.6947C83.3425 33.3684 82.914 32.9248 82.5954 32.3634C82.2844 31.8022 82.1289 31.1649 82.1289 30.4519C82.1214 29.7389 82.273 29.1018 82.584 28.5405C82.9026 27.9716 83.3311 27.5317 83.8698 27.2207C84.4083 26.9021 85.0038 26.7466 85.656 26.7542C86.3084 26.7466 86.8886 26.8983 87.3969 27.2093C87.9126 27.5127 88.307 27.9489 88.5801 28.5178C88.8608 29.0791 89.0011 29.7238 89.0011 30.4519C89.0011 31.1802 88.8608 31.8249 88.5801 32.3862C88.307 32.9476 87.9126 33.3874 87.3969 33.7061Z" fill="black"/>
<path d="M43.072 20.0186H46.6219L49.7974 31.6155L53.1755 20.0186H56.1338L59.7974 31.3828L62.8466 20.0186H66.1006L61.2993 36.7667H58.2386L54.5131 25.6647L51.0934 36.7667H47.9986L43.072 20.0186Z" fill="black"/>
<path fill-rule="evenodd" clip-rule="evenodd" d="M71.3432 37.0624C70.1067 37.07 68.9917 36.7969 67.9981 36.2433C67.012 35.6819 66.2346 34.9044 65.6656 33.9108C65.1044 32.9171 64.8237 31.7831 64.8237 30.5088C64.8237 29.2724 65.112 28.1536 65.6885 27.1524C66.2649 26.1511 67.0461 25.3699 68.0322 24.8086C69.0183 24.2473 70.1181 23.9666 71.3317 23.9666C72.6971 23.9666 73.8917 24.27 74.9157 24.8768C75.9474 25.4836 76.7172 26.3446 77.2255 27.4596C77.7412 28.567 77.9271 29.8375 77.783 31.2711H68.0371C68.0644 31.8423 68.2069 32.3619 68.4646 32.8299C68.7529 33.3456 69.1549 33.7476 69.6706 34.0359C70.1865 34.3241 70.7629 34.4683 71.4001 34.4683C71.8855 34.4606 72.3369 34.3773 72.754 34.218C73.1712 34.0511 73.5238 33.8274 73.8121 33.5466C74.108 33.266 74.3166 32.9475 74.438 32.591H77.692C77.4947 33.4633 77.1003 34.2408 76.5087 34.9234C75.917 35.5985 75.1737 36.1256 74.2786 36.5049C73.3836 36.8841 72.4051 37.07 71.3432 37.0624ZM68.476 28.1423C68.2942 28.4592 68.1682 28.8005 68.0981 29.1663H74.5585C74.5116 28.7043 74.369 28.2833 74.1307 27.9033C73.8576 27.4558 73.486 27.1107 73.0157 26.8679C72.5455 26.6176 72.0145 26.4925 71.4229 26.4925C70.7932 26.4925 70.2206 26.6366 69.7047 26.9248C69.189 27.2131 68.7794 27.6189 68.476 28.1423Z" fill="black"/>
<path d="M94.5197 24.2283C94.5197 23.2119 94.751 22.3093 95.2137 21.5204C95.6763 20.724 96.325 20.1058 97.1593 19.6658C98.0012 19.2183 98.9836 18.987 100.106 18.9718V21.7366C99.5827 21.7442 99.1352 21.8542 98.7636 22.0666C98.3995 22.2714 98.1188 22.571 97.9216 22.9654C97.7401 23.3285 97.6421 23.7495 97.6277 24.2283H100.038V26.8566H97.6258V36.7667H94.5197V26.8566H92.5172V24.2283H94.5197Z" fill="black"/>
<path fill-rule="evenodd" clip-rule="evenodd" d="M112.337 37.0396C111.07 37.0396 109.936 36.7627 108.935 36.2091C107.941 35.6477 107.16 34.8741 106.591 33.888C106.03 32.8943 105.749 31.768 105.749 30.5087C105.749 29.2421 106.03 28.1119 106.591 27.1182C107.16 26.1169 107.941 25.3395 108.935 24.7858C109.936 24.232 111.07 23.9552 112.337 23.9552C113.611 23.9552 114.749 24.232 115.75 24.7858C116.759 25.3395 117.544 26.1132 118.105 27.1068C118.667 28.1005 118.951 29.2345 118.959 30.5087C118.951 31.768 118.667 32.8943 118.105 33.888C117.552 34.8741 116.77 35.6477 115.761 36.2091C114.753 36.7627 113.611 37.0396 112.337 37.0396ZM112.337 34.1838C113.004 34.1838 113.596 34.0321 114.112 33.7287C114.628 33.4177 115.026 32.9853 115.306 32.4316C115.587 31.8703 115.727 31.2293 115.727 30.5087C115.727 29.7806 115.587 29.1358 115.306 28.5745C115.026 28.0132 114.628 27.5809 114.112 27.2775C113.596 26.9665 113.004 26.811 112.337 26.811C111.677 26.811 111.089 26.9665 110.573 27.2775C110.065 27.5809 109.671 28.0132 109.39 28.5745C109.109 29.1358 108.973 29.7806 108.98 30.5087C108.98 31.2293 109.121 31.8703 109.401 32.4316C109.69 32.9853 110.084 33.4177 110.585 33.7287C111.093 34.0321 111.677 34.1838 112.337 34.1838Z" fill="black"/>
<path d="M122.315 24.2283H118.856L122.6 36.7666H125.626L128.088 28.7584L130.746 36.7666H133.727L137.482 24.2283H134.353L132.223 32.0326L129.869 24.2283H126.843L124.501 32.2045L122.315 24.2283Z" fill="black"/>
</svg>
