<svg width="52" height="50" viewBox="0 0 52 50" fill="none" xmlns="http://www.w3.org/2000/svg">
<path d="M42.5882 48.9999H8.76429C8.42879 48.9999 8.1543 48.7254 8.1543 48.3899V37.9774C8.1543 36.8306 9.08758 35.9004 10.2344 35.9004H41.1181C42.2649 35.9004 43.1951 36.8337 43.1951 37.9774V48.3899C43.1951 48.7254 42.9206 48.9999 42.5851 48.9999H42.5882ZM9.37427 47.7799H41.9751V37.9774C41.9751 37.5047 41.5908 37.1204 41.1181 37.1204H10.2344C9.76162 37.1204 9.37427 37.5047 9.37427 37.9774V47.7799Z" fill="#061043" stroke="#061043"/>
<path d="M17.0987 43.0618H8.76624C8.43074 43.0618 8.15625 42.7873 8.15625 42.4518C8.15625 42.1163 8.43074 41.8418 8.76624 41.8418H17.0987C17.4342 41.8418 17.7087 42.1163 17.7087 42.4518C17.7087 42.7873 17.4342 43.0618 17.0987 43.0618Z" fill="#061043" stroke="#061043"/>
<path d="M37.9616 37.1202H13.3912C13.0557 37.1202 12.7812 36.8457 12.7812 36.5102V30.6452C12.7812 23.5327 18.567 17.75 25.6764 17.75C32.7858 17.75 38.5716 23.5357 38.5716 30.6452V36.5102C38.5716 36.8457 38.2971 37.1202 37.9616 37.1202ZM14.0012 35.9002H37.3546V30.6452C37.3546 24.2067 32.1179 18.97 25.6795 18.97C19.241 18.97 14.0043 24.2067 14.0043 30.6452V35.9002H14.0012Z" fill="#061043" stroke="#061043"/>
<path d="M32.6893 28.5958C32.4423 28.5958 32.2105 28.4464 32.119 28.2024C31.4511 26.4487 30.0755 25.0213 28.3432 24.2923C28.0321 24.1612 27.8857 23.8044 28.0168 23.4933C28.148 23.1822 28.5048 23.0388 28.8159 23.1669C30.8533 24.027 32.4728 25.7045 33.2566 27.7693C33.3756 28.0834 33.217 28.4372 32.9028 28.5562C32.8327 28.5836 32.7595 28.5958 32.6863 28.5958H32.6893Z" fill="#061043" stroke="#061043"/>
<path d="M25.6764 12.5898C25.3409 12.5898 25.0664 12.3153 25.0664 11.9798V1.60999C25.0664 1.27449 25.3409 1 25.6764 1C26.0119 1 26.2864 1.27449 26.2864 1.60999V11.9798C26.2864 12.3153 26.0119 12.5898 25.6764 12.5898Z" fill="#061043" stroke="#061043"/>
<path d="M16.7723 14.8591C16.5618 14.8591 16.3575 14.7493 16.2447 14.5542L11.0598 5.57207C10.892 5.27928 10.9927 4.90719 11.2824 4.73944C11.5752 4.57169 11.9473 4.67234 12.115 4.96209L17.2999 13.9442C17.4677 14.237 17.367 14.6091 17.0773 14.7768C16.9827 14.8317 16.876 14.8591 16.7723 14.8591Z" fill="#061043" stroke="#061043"/>
<path d="M9.76991 21.4769C9.64791 21.4769 9.52591 21.4403 9.41916 21.3671L0.925071 15.4166C0.650576 15.2245 0.583477 14.8432 0.775624 14.5657C0.96777 14.2912 1.34901 14.2241 1.62656 14.4162L10.1206 20.3636C10.3951 20.5558 10.4622 20.937 10.2701 21.2146C10.1511 21.3854 9.96205 21.4738 9.76991 21.4738V21.4769Z" fill="#061043" stroke="#061043"/>
<path d="M34.5783 14.8592C34.4746 14.8592 34.3709 14.8318 34.2733 14.7769C33.9805 14.6091 33.8829 14.234 34.0507 13.9442L39.2356 4.96215C39.4033 4.66936 39.7754 4.56871 40.0682 4.73951C40.361 4.90725 40.4586 5.2824 40.2908 5.57214L35.1059 14.5542C34.9931 14.7494 34.7887 14.8592 34.5783 14.8592Z" fill="#061043" stroke="#061043"/>
<path d="M41.5805 21.4777C41.3884 21.4777 41.1993 21.3862 41.0803 21.2185C40.8882 20.944 40.9553 20.5627 41.2298 20.3675L49.7239 14.4202C50.0014 14.228 50.3796 14.2951 50.5748 14.5696C50.7669 14.8441 50.6998 15.2253 50.4253 15.4205L41.9312 21.3679C41.8245 21.4411 41.7025 21.4777 41.5805 21.4777Z" fill="#061043" stroke="#061043"/>
</svg>
