<svg width="52" height="50" viewBox="0 0 52 50" fill="none" xmlns="http://www.w3.org/2000/svg">
<path d="M5.29176 9.58658C2.92611 9.58658 1 7.66048 1 5.29176C1 2.92305 2.92611 1 5.29176 1C7.65742 1 9.58353 2.92611 9.58353 5.29176C9.58353 7.65742 7.65742 9.58353 5.29176 9.58353V9.58658ZM5.29176 2.22099C3.59765 2.22099 2.22099 3.59765 2.22099 5.29176C2.22099 6.98588 3.59765 8.36254 5.29176 8.36254C6.98588 8.36254 8.36254 6.98588 8.36254 5.29176C8.36254 3.59765 6.98588 2.22099 5.29176 2.22099Z" fill="#061043" stroke="#061043"/>
<path d="M17.9343 9.58658C15.5687 9.58658 13.6426 7.66048 13.6426 5.29482C13.6426 2.92916 15.5656 1 17.9343 1C20.3031 1 22.2261 2.92611 22.2261 5.29176C22.2261 7.65742 20.3 9.58353 17.9343 9.58353V9.58658ZM17.9343 2.22099C16.2402 2.22099 14.8636 3.59765 14.8636 5.29176C14.8636 6.98588 16.2402 8.36254 17.9343 8.36254C19.6285 8.36254 21.0051 6.98588 21.0051 5.29176C21.0051 3.59765 19.6285 2.22099 17.9343 2.22099Z" fill="#061043" stroke="#061043"/>
<path d="M30.575 9.58658C28.2093 9.58658 26.2832 7.66048 26.2832 5.29482C26.2832 2.92916 28.2093 1 30.575 1C32.9406 1 34.8667 2.92611 34.8667 5.29176C34.8667 7.65742 32.9406 9.58353 30.575 9.58353V9.58658ZM30.575 2.22099C28.8808 2.22099 27.5042 3.59765 27.5042 5.29176C27.5042 6.98588 28.8808 8.36254 30.575 8.36254C32.2691 8.36254 33.6457 6.98588 33.6457 5.29176C33.6457 3.59765 32.2691 2.22099 30.575 2.22099Z" fill="#061043" stroke="#061043"/>
<path d="M5.29176 34.8697C2.92611 34.8697 1 32.9436 1 30.5779C1 28.2122 2.92611 26.2861 5.29176 26.2861C7.65742 26.2861 9.58353 28.2122 9.58353 30.5779C9.58353 32.9436 7.65742 34.8697 5.29176 34.8697ZM5.29176 27.5041C3.59765 27.5041 2.22099 28.8807 2.22099 30.5748C2.22099 32.269 3.59765 33.6456 5.29176 33.6456C6.98588 33.6456 8.36254 32.269 8.36254 30.5748C8.36254 28.8807 6.98588 27.5041 5.29176 27.5041Z" fill="#061043" stroke="#061043"/>
<path d="M14.656 32.8583C14.4332 32.8583 14.2195 32.7362 14.1127 32.5256C13.8044 31.9273 13.6426 31.2527 13.6426 30.575C13.6426 28.4536 15.1627 26.6709 17.2536 26.3382C17.5864 26.2833 17.9008 26.5122 17.9527 26.8449C18.0045 27.1777 17.7787 27.4921 17.4459 27.5439C15.9502 27.782 14.8636 29.058 14.8636 30.575C14.8636 31.0665 14.9765 31.5335 15.1993 31.967C15.352 32.2661 15.236 32.6355 14.9338 32.7881C14.8453 32.8339 14.7506 32.8552 14.656 32.8552V32.8583Z" fill="#061043" stroke="#061043"/>
<path d="M5.29176 22.2271C2.92611 22.2271 1 20.301 1 17.9353C1 15.5697 2.92611 13.6436 5.29176 13.6436C7.65742 13.6436 9.58353 15.5697 9.58353 17.9353C9.58353 20.301 7.65742 22.2271 5.29176 22.2271ZM5.29176 14.8615C3.59765 14.8615 2.22099 16.2382 2.22099 17.9323C2.22099 19.6264 3.59765 21.003 5.29176 21.003C6.98588 21.003 8.36254 19.6264 8.36254 17.9323C8.36254 16.2382 6.98588 14.8615 5.29176 14.8615Z" fill="#061043" stroke="#061043"/>
<path d="M33.7509 16.6745C33.5433 16.6745 33.3388 16.5677 33.2258 16.3754C32.6733 15.4444 31.6599 14.8644 30.5793 14.8644C29.5964 14.8644 28.6685 15.3376 28.0916 16.1342C27.8932 16.409 27.5116 16.47 27.2399 16.2716C26.9683 16.0732 26.9072 15.6916 27.1026 15.42C27.9054 14.3089 29.2057 13.6465 30.5793 13.6465C32.0903 13.6465 33.5067 14.4554 34.2759 15.7588C34.4468 16.0488 34.3522 16.4242 34.0622 16.5952C33.9645 16.6532 33.8577 16.6806 33.7509 16.6806V16.6745Z" fill="#061043" stroke="#061043"/>
<path d="M40.056 49.0004C37.4034 49.0004 34.6958 47.9717 31.5793 46.7874L30.9688 46.5554C30.4926 46.3753 22.2387 42.6055 18.7528 40.8717C16.7779 39.8888 15.7706 37.804 16.3078 35.7985C16.6375 34.5683 17.4891 33.5488 18.6429 33.0085C19.7967 32.4652 21.1215 32.4621 22.2815 32.9933L25.2759 34.3699L16.1643 18.5948C15.2547 17.0167 15.795 14.9929 17.3731 14.0833C18.9512 13.1736 20.975 13.7139 21.8846 15.292L29.7447 28.8999C29.9126 29.193 29.8149 29.5654 29.5219 29.7332C29.2289 29.9011 28.8565 29.8004 28.6886 29.5104L20.8285 15.9025C20.2546 14.9074 18.9787 14.5656 17.9836 15.1394C16.9885 15.7133 16.6466 16.9892 17.2205 17.9843L27.2905 35.42C27.4249 35.6489 27.3913 35.9389 27.2142 36.1373C27.0341 36.3327 26.7503 36.3937 26.5091 36.2808L21.7717 34.1013C20.9414 33.7198 19.9891 33.7228 19.1618 34.1105C18.3346 34.4981 17.7241 35.2277 17.4891 36.1098C17.1045 37.5445 17.8493 39.0524 19.2992 39.7728C22.8645 41.5463 31.0115 45.2581 31.4053 45.4076L32.0158 45.6396C36.8997 47.4955 40.4284 48.8356 44.2745 46.6134C49.2591 43.7349 51.2249 37.63 48.847 32.4103C48.5815 31.8272 48.3098 31.2503 48.0382 30.6978C46.8813 28.3413 42.7391 21.5221 42.6994 21.455C42.1194 20.4538 40.9076 20.0508 39.9308 20.524C39.3844 20.7895 38.9815 21.2779 38.8258 21.8579C38.6823 22.3951 38.7556 22.9568 39.0334 23.4391L40.291 25.6155C40.4589 25.9085 40.3612 26.2809 40.0682 26.4488C39.7751 26.6167 39.4027 26.5159 39.2348 26.226L37.9772 24.0496C37.5346 23.2834 37.4186 22.3951 37.6476 21.5435C37.8948 20.6186 38.5328 19.8494 39.3966 19.4281C40.9442 18.6711 42.8581 19.2877 43.7494 20.8323C43.9143 21.1039 47.9527 27.7552 49.134 30.1606C49.4118 30.7253 49.6895 31.3114 49.9581 31.9066C52.5985 37.7002 50.416 44.4797 44.885 47.6756C43.2458 48.6219 41.6616 48.9973 40.059 49.0004H40.056Z" fill="#061043" stroke="#061043"/>
<path d="M29.2158 29.8186C29.0052 29.8186 28.8007 29.7087 28.6877 29.5134L25.4094 23.8388C24.9698 23.0788 24.8508 22.1875 25.0767 21.3328C25.3056 20.4781 25.852 19.7668 26.6182 19.3242C27.3813 18.8847 28.2726 18.7656 29.1242 18.9946C29.9759 19.2235 30.6901 19.7699 31.1297 20.533L35.6077 28.2832C35.7755 28.5763 35.6779 28.9487 35.3848 29.1165C35.0918 29.2844 34.7194 29.1837 34.5515 28.8937L30.0735 21.1435C29.7958 20.6612 29.3471 20.3193 28.8098 20.1759C28.2726 20.0324 27.7109 20.1057 27.2286 20.3834C26.7464 20.6612 26.4014 21.1099 26.258 21.6472C26.1145 22.1844 26.1908 22.7491 26.4686 23.2283L29.7469 28.9029C29.9148 29.1959 29.8171 29.5683 29.5241 29.7362C29.4295 29.7911 29.3226 29.8186 29.2189 29.8186H29.2158Z" fill="#061043" stroke="#061043"/>
<path d="M35.0808 29.2021C34.8702 29.2021 34.6657 29.0923 34.5527 28.8969L31.7841 24.1045C31.3415 23.3414 31.2255 22.4501 31.4545 21.5985C31.6834 20.7468 32.2298 20.0356 32.9929 19.593C33.756 19.1504 34.6474 19.0344 35.499 19.2633C36.3506 19.4923 37.0619 20.0386 37.5045 20.8018L40.2883 25.6247C40.4562 25.9177 40.3585 26.2901 40.0655 26.458C39.7724 26.6259 39.4 26.5251 39.2322 26.2351L36.4483 21.4123C36.1705 20.93 35.7218 20.585 35.1846 20.4416C34.6474 20.2981 34.0857 20.3714 33.6034 20.6491C33.1211 20.9269 32.7762 21.3756 32.6327 21.9129C32.4893 22.4501 32.5625 23.0117 32.8403 23.494L35.6089 28.2864C35.7768 28.5794 35.6791 28.9518 35.3861 29.1197C35.2914 29.1747 35.1846 29.2021 35.0808 29.2021Z" fill="#061043" stroke="#061043"/>
</svg>
