<svg width="67" height="50" viewBox="0 0 67 50" fill="none" xmlns="http://www.w3.org/2000/svg">
<path d="M57.4676 37.6175H9.23877C8.01964 37.6175 7.02539 36.6232 7.02539 35.4041V3.21338C7.02539 1.99425 8.01964 1 9.23877 1H57.4676C58.6867 1 59.681 1.99425 59.681 3.21338V35.4001C59.681 36.6193 58.6867 37.6135 57.4676 37.6135V37.6175ZM9.23877 2.57817C8.88763 2.57817 8.60356 2.86224 8.60356 3.21338V35.4001C8.60356 35.7513 8.88763 36.0353 9.23877 36.0353H57.4676C57.8187 36.0353 58.1028 35.7513 58.1028 35.4001V3.21338C58.1028 2.86224 57.8187 2.57817 57.4676 2.57817H9.23877Z" fill="#061043" stroke="#061043"/>
<path d="M59.8341 49H6.87079C3.6316 49 1 46.3644 1 43.1292V41.6457C1 41.0381 1.49318 40.5449 2.10077 40.5449H64.6081C65.2157 40.5449 65.7089 41.0381 65.7089 41.6457V43.1292C65.7089 46.3684 63.0733 49 59.8381 49H59.8341ZM2.57817 42.1231V43.1252C2.57817 45.4925 4.50353 47.4178 6.87079 47.4178H59.8341C62.2014 47.4178 64.1267 45.4925 64.1267 43.1252V42.1231H2.57817Z" fill="#061043" stroke="#061043"/>
<path d="M33.3518 31.9164C28.5621 31.9164 24.668 28.0223 24.668 23.2326V18.0917C24.668 17.2908 25.319 16.6398 26.1199 16.6398H40.5877C41.3887 16.6398 42.0357 17.2908 42.0357 18.0917V23.2326C42.0357 28.0223 38.1416 31.9164 33.3518 31.9164ZM26.2461 18.2179V23.2326C26.2461 27.1504 29.434 30.3383 33.3518 30.3383C37.2696 30.3383 40.4575 27.1504 40.4575 23.2326V18.2179H26.2461Z" fill="#061043" stroke="#061043"/>
<path d="M38.8474 18.2179H27.8594C27.4254 18.2179 27.0703 17.8628 27.0703 17.4288V12.9823C27.0703 9.51824 29.8873 6.69727 33.3554 6.69727C36.8234 6.69727 39.6404 9.5143 39.6404 12.9823V17.4288C39.6404 17.8628 39.2853 18.2179 38.8513 18.2179H38.8474ZM28.6445 16.6397H38.0544V12.9823C38.0544 10.3862 35.9436 8.27543 33.3475 8.27543C30.7514 8.27543 28.6406 10.3862 28.6406 12.9823V16.6397H28.6445Z" fill="#061043" stroke="#061043"/>
<path d="M33.3516 26.0614C32.9176 26.0614 32.5625 25.7063 32.5625 25.2723V23.2877C32.5625 22.8537 32.9176 22.4987 33.3516 22.4987C33.7856 22.4987 34.1407 22.8537 34.1407 23.2877V25.2723C34.1407 25.7063 33.7856 26.0614 33.3516 26.0614Z" fill="#061043" stroke="#061043"/>
</svg>
