<svg width="45" height="50" viewBox="0 0 45 50" fill="none" xmlns="http://www.w3.org/2000/svg">
<path d="M27.0528 48.9998C26.9036 48.9998 26.7543 48.9412 26.6402 48.8271L17.8275 40.0144C17.5992 39.7861 17.5992 39.4144 17.8275 39.1861C18.0558 38.9578 18.4275 38.9578 18.6558 39.1861L27.4684 47.9988C27.6967 48.2271 27.6967 48.5988 27.4684 48.8271C27.3543 48.9412 27.205 48.9998 27.0558 48.9998H27.0528Z" fill="black" stroke="#061043"/>
<path d="M18.2402 48.9998C18.0909 48.9998 17.9416 48.9412 17.8275 48.8271C17.5992 48.5988 17.5992 48.2271 17.8275 47.9988L26.6402 39.1861C26.8684 38.9578 27.2402 38.9578 27.4684 39.1861C27.6967 39.4144 27.6967 39.7861 27.4684 40.0144L18.6558 48.8271C18.5416 48.9412 18.3923 48.9998 18.2431 48.9998H18.2402Z" fill="black" stroke="#061043"/>
<path d="M43.711 48.9998C43.5618 48.9998 43.4125 48.9412 43.2984 48.8271L34.4857 40.0144C34.2574 39.7861 34.2574 39.4144 34.4857 39.1861C34.714 38.9578 35.0857 38.9578 35.314 39.1861L44.1266 47.9988C44.3549 48.2271 44.3549 48.5988 44.1266 48.8271C44.0125 48.9412 43.8632 48.9998 43.714 48.9998H43.711Z" fill="black" stroke="#061043"/>
<path d="M34.8964 48.9998C34.7471 48.9998 34.5979 48.9412 34.4837 48.8271C34.2554 48.5988 34.2554 48.2271 34.4837 47.9988L43.2964 39.1861C43.5247 38.9578 43.8964 38.9578 44.1247 39.1861C44.353 39.4144 44.353 39.7861 44.1247 40.0144L35.312 48.8271C35.1979 48.9412 35.0486 48.9998 34.8993 48.9998H34.8964Z" fill="black" stroke="#061043"/>
<path d="M10.3966 48.9998C10.2473 48.9998 10.0981 48.9412 9.9839 48.8271L1.17122 40.0144C0.942927 39.7861 0.942927 39.4144 1.17122 39.1861C1.39951 38.9578 1.77122 38.9578 1.99951 39.1861L10.8122 47.9988C11.0405 48.2271 11.0405 48.5988 10.8122 48.8271C10.698 48.9412 10.5488 48.9998 10.3995 48.9998H10.3966Z" fill="black" stroke="#061043"/>
<path d="M1.5839 48.9998C1.43463 48.9998 1.28537 48.9412 1.17122 48.8271C0.942927 48.5988 0.942927 48.2271 1.17122 47.9988L9.9839 39.1861C10.2122 38.9578 10.5839 38.9578 10.8122 39.1861C11.0405 39.4144 11.0405 39.7861 10.8122 40.0144L1.99951 48.8271C1.88537 48.9412 1.7361 48.9998 1.58683 48.9998H1.5839Z" fill="black" stroke="#061043"/>
<path d="M22.6483 33.2071C13.7683 33.2071 6.54492 25.9837 6.54492 17.1037C6.54492 8.22366 13.7683 1.00024 22.6483 1.00024C31.5283 1.00024 38.7518 8.22366 38.7518 17.1037C38.7518 25.9837 31.5283 33.2071 22.6483 33.2071ZM22.6483 2.17098C14.4152 2.17098 7.71565 8.87049 7.71565 17.1037C7.71565 25.3368 14.4152 32.0363 22.6483 32.0363C30.8815 32.0363 37.581 25.3368 37.581 17.1037C37.581 8.87049 30.8815 2.17098 22.6483 2.17098Z" fill="black" stroke="#061043"/>
<path d="M22.649 19.8754C19.1105 19.8754 16.2305 16.9954 16.2305 13.4569C16.2305 9.91833 19.1105 7.03833 22.649 7.03833C26.1875 7.03833 29.0675 9.91833 29.0675 13.4569C29.0675 16.9954 26.1875 19.8754 22.649 19.8754ZM22.649 8.21199C19.7573 8.21199 17.4012 10.5652 17.4012 13.4598C17.4012 16.3544 19.7544 18.7076 22.649 18.7076C25.5436 18.7076 27.8968 16.3544 27.8968 13.4598C27.8968 10.5652 25.5436 8.21199 22.649 8.21199Z" fill="black" stroke="#061043"/>
<path d="M32.3357 29.815C32.1044 29.815 31.8849 29.6774 31.7942 29.4491C30.2752 25.7087 26.684 23.2911 22.6508 23.2911C18.6176 23.2911 15.0235 25.7057 13.5045 29.4462C13.3815 29.7448 13.0391 29.8882 12.7405 29.7682C12.442 29.6452 12.2957 29.3057 12.4186 29.0043C14.1191 24.8218 18.1347 22.1204 22.6508 22.1204C27.1669 22.1204 31.1796 24.8248 32.8801 29.0072C33.003 29.3057 32.8566 29.6482 32.5581 29.7711C32.4849 29.8004 32.4118 29.815 32.3386 29.815H32.3357Z" fill="black" stroke="#061043"/>
</svg>
