<svg width="57" height="50" viewBox="0 0 57 50" fill="none" xmlns="http://www.w3.org/2000/svg">
<path d="M25.3323 49.0017C25.2551 49.0017 25.1812 49.0017 25.1006 48.9983C18.7937 48.9446 12.8428 46.4494 8.36288 41.9728C3.88628 37.4928 1.39108 31.5419 1.33398 25.2116C1.33398 25.1578 1.33398 25.0806 1.33398 25.0034C1.33398 24.9261 1.33398 24.8489 1.33734 24.7716C1.39108 18.4681 3.88628 12.5139 8.36288 8.03729C12.8428 3.55734 18.7937 1.05877 25.1241 1.00504C25.2316 0.998321 25.4028 0.998321 25.564 1.00504C35.612 1.08564 44.6324 7.52683 47.9772 17.0308C48.1015 17.38 47.9168 17.7629 47.5675 17.8871C47.2183 18.008 46.8354 17.8267 46.7112 17.4774C43.551 8.50745 35.0378 2.42559 25.5271 2.34835C25.4431 2.34835 25.386 2.34835 25.3323 2.34835C25.2752 2.34835 25.2215 2.34835 25.161 2.34835C12.8563 2.45246 2.78476 12.5273 2.68066 24.8086C2.6773 24.8925 2.68066 24.9496 2.68066 25.0034C2.68066 25.0571 2.68066 25.1142 2.68066 25.1746C2.78476 37.4794 12.8563 47.5509 25.1375 47.655C25.2215 47.655 25.2752 47.655 25.3323 47.655C25.3894 47.655 25.4465 47.655 25.5036 47.655C31.7097 47.6046 37.4658 45.1094 41.7342 40.6328C41.9894 40.3642 42.4159 40.3541 42.6846 40.6093C42.9532 40.8646 42.9633 41.2911 42.7081 41.5597C38.1878 46.3016 32.0925 48.9446 25.5405 48.9983C25.4834 48.9983 25.4095 48.9983 25.3323 48.9983V49.0017Z" fill="#061043" stroke="#061043"/>
<path d="M25.3322 49.002C20.7952 49.002 16.8559 43.5447 15.0559 34.7595C14.4245 31.69 14.1055 28.4056 14.1055 25.007C14.1055 21.6084 14.4245 18.3206 15.0559 15.2478C16.8593 6.46253 20.7985 1.00195 25.3322 1.00195C29.8659 1.00195 33.8085 6.45917 35.6119 15.2445C35.8101 16.2284 35.9814 17.2359 36.1157 18.2367C36.1661 18.6027 35.9075 18.9419 35.5381 18.9923C35.1754 19.0393 34.8328 18.7841 34.7824 18.4147C34.6515 17.4441 34.4869 16.4669 34.2955 15.5131C32.6533 7.51367 29.1338 2.34527 25.3322 2.34527C21.5306 2.34527 18.0145 7.51367 16.369 15.5131C15.7577 18.4953 15.4454 21.6856 15.4454 25.0003C15.4454 28.3149 15.7544 31.5019 16.369 34.4841C18.0078 42.4835 21.5273 47.6519 25.3322 47.6519C29.1372 47.6519 32.6567 42.4835 34.2955 34.4841C34.3593 34.1818 34.4164 33.8762 34.4735 33.5706C34.5406 33.2079 34.8899 32.9661 35.256 33.0299C35.622 33.0971 35.8638 33.4464 35.7966 33.8124C35.7396 34.1281 35.6791 34.4471 35.6153 34.7561C33.8153 43.5414 29.876 48.9986 25.3356 48.9986L25.3322 49.002Z" fill="#061043" stroke="#061043"/>
<path d="M25.3323 36.2307C21.9304 36.2307 18.6493 35.9117 15.5765 35.2803C6.97591 33.5172 1.52205 29.6686 1.33734 25.2323C1.33398 25.1551 1.33398 25.0779 1.33398 25.004C1.33398 24.9301 1.33398 24.8495 1.33734 24.7689C1.52205 20.336 6.97591 16.4874 15.5765 14.7209C18.646 14.0895 21.9304 13.7705 25.3323 13.7705C28.7343 13.7705 32.0187 14.0895 35.0881 14.7209C37.4624 15.2112 39.6319 15.8694 41.536 16.6754C41.8786 16.8198 42.0364 17.2128 41.892 17.5553C41.7476 17.8978 41.3513 18.0557 41.0122 17.9113C39.1886 17.1389 37.1031 16.5075 34.8195 16.034C31.8373 15.4228 28.6469 15.1105 25.3323 15.1105C22.0177 15.1105 18.8307 15.4194 15.8485 16.034C8.00354 17.6426 2.83514 21.0949 2.68066 24.826C2.68066 24.8898 2.68066 24.9435 2.68066 25.0006C2.68066 25.0577 2.68066 25.1114 2.68066 25.1719C2.83514 28.9063 8.00354 32.3553 15.8485 33.9639C18.8307 34.5751 22.021 34.8874 25.3323 34.8874C28.6436 34.8874 31.8373 34.5785 34.8195 33.9639C35.1822 33.8867 35.5381 34.1251 35.612 34.4878C35.6859 34.8505 35.4542 35.2065 35.0881 35.2803C32.0153 35.9117 28.7343 36.2307 25.3323 36.2307Z" fill="#061043" stroke="#061043"/>
<path d="M44.381 42.9939C44.287 42.9939 44.193 42.9738 44.1057 42.9335C43.9613 42.8663 29.5609 36.1766 32.8386 21.1012L33.4465 18.3071C33.5103 18.0183 33.7554 17.8034 34.051 17.7799C38.1951 17.4608 41.5802 16.7287 44.1057 15.597C44.2803 15.5198 44.4784 15.5198 44.6531 15.597C47.1785 16.7254 50.5637 17.4608 54.7078 17.7799C55.0033 17.8034 55.2485 18.0183 55.3123 18.3071L55.9201 21.1012C59.2012 36.1799 44.8008 42.8696 44.6531 42.9335C44.5658 42.9738 44.4717 42.9939 44.3777 42.9939H44.381ZM34.6521 19.0762L34.1483 21.3867C31.3442 34.2825 42.4635 40.5927 44.3777 41.5733C45.2542 41.1267 48.0584 39.5718 50.5569 36.8147C54.5197 32.4388 55.8832 27.2503 54.607 21.3833L54.1033 19.0728C50.1741 18.737 46.9031 18.0183 44.3777 16.9403C41.8489 18.0183 38.5813 18.737 34.6521 19.0728V19.0762Z" fill="#061043" stroke="#061043"/>
<path d="M42.8901 33.2181C42.6987 33.2181 42.5174 33.1375 42.3897 32.9931L39.5184 29.7759C39.2699 29.5005 39.2968 29.074 39.5721 28.8288C39.8475 28.5803 40.274 28.6072 40.5192 28.8826L42.8868 31.539L48.2365 25.5411C48.4817 25.2623 48.9082 25.2388 49.1836 25.4873C49.4589 25.7325 49.4858 26.159 49.2373 26.4344L43.3872 32.9931C43.2595 33.1375 43.0782 33.2181 42.8868 33.2181H42.8901Z" fill="#061043" stroke="#061043"/>
</svg>
