<svg width="217" height="42" viewBox="0 0 217 42" fill="none" xmlns="http://www.w3.org/2000/svg">
<path d="M99.4219 33.3296L99.8588 32.7125C100.421 33.0457 101.132 33.2309 101.794 33.2185C102.518 33.2185 103.017 32.9347 103.03 32.4657C103.03 32.0337 102.743 31.8733 101.981 31.7005L101.294 31.54C100.183 31.2932 99.6591 30.8242 99.6591 30.0713C99.6591 29.2321 100.508 28.6644 101.656 28.652C102.418 28.652 103.155 28.8742 103.691 29.2074L103.279 29.8245C102.817 29.5406 102.293 29.3678 101.731 29.3802C101.02 29.3802 100.52 29.6394 100.52 30.096C100.52 30.491 100.845 30.6884 101.532 30.8489L102.268 31.0093C103.379 31.2562 103.866 31.6758 103.866 32.4657C103.866 33.342 103.017 33.9344 101.769 33.9344C100.92 33.9344 100.046 33.6999 99.4344 33.3173L99.4219 33.3296Z" fill="#061043"/>
<path d="M109.084 28.7137H113.166V29.4419H109.883V30.7625H112.267V31.466H109.883V33.1445H113.166V33.8727H109.084V28.7137Z" fill="#061043"/>
<path d="M117.824 31.2932C117.824 29.7998 119.023 28.6273 120.608 28.6273C122.194 28.6273 122.218 28.9606 122.755 29.5406L122.131 30.022C121.732 29.6023 121.195 29.3678 120.608 29.3678C119.497 29.3678 118.636 30.1824 118.636 31.2808C118.636 32.3793 119.497 33.2062 120.608 33.2062C121.719 33.2062 121.757 32.9717 122.156 32.5397L122.78 33.0087C122.231 33.6011 121.482 33.9467 120.608 33.9467C119.035 33.9467 117.824 32.7866 117.824 31.2808V31.2932Z" fill="#061043"/>
<path d="M127.797 31.3919V28.7137H128.608V31.3919C128.608 32.5521 129.108 33.1938 130.206 33.1938C131.305 33.1938 131.804 32.5521 131.804 31.4043V28.7261H132.628V31.4043C132.628 32.9717 131.804 33.9344 130.206 33.9344C128.608 33.9344 127.797 32.984 127.797 31.3919Z" fill="#061043"/>
<path d="M141.418 33.8727L138.921 31.6017V33.8727H138.109V28.7137H140.556C141.692 28.7137 142.454 29.2691 142.454 30.2688C142.454 31.2685 141.755 31.7992 140.619 31.7992H140.182L142.566 33.8727H141.418ZM138.933 31.1081H140.631C141.23 31.1081 141.642 30.8489 141.642 30.2688C141.642 29.6887 141.23 29.4295 140.631 29.4295H138.933V31.0957V31.1081Z" fill="#061043"/>
<path d="M147.785 28.7137H148.597V33.8727H147.785V28.7137Z" fill="#061043"/>
<path d="M155.436 29.4419H153.613V28.7137H158.057V29.4419H156.235V33.8727H155.436V29.4419Z" fill="#061043"/>
<path d="M164.561 31.6511L162.289 28.7137H163.25L164.961 30.9106L166.671 28.7137H167.632L165.36 31.6511V33.8727H164.549V31.6511H164.561Z" fill="#061043"/>
<path d="M45.5793 35.3044H39.3125V41.5H45.5793V35.3044Z" fill="#C11794"/>
<path d="M48.3499 0.5H36.9647L21.9219 30.2318L27.3897 41.5L48.3499 0.5Z" fill="url(#paint0_linear_4145_6983)"/>
<path d="M26.4786 0.5H15.0935L0.5 30.6884L5.51845 41.5L26.4786 0.5Z" fill="url(#paint1_linear_4145_6983)"/>
<path d="M78.3233 0.5H67.1379L57.7002 21L48.1252 0.5H37.1895L57.101 41.5L78.3233 0.5Z" fill="url(#paint2_linear_4145_6983)"/>
<path d="M87.6612 15.0265V23.5054H84.5527V9.46027H87.6612L92.6422 18.4576L97.7106 9.46027H100.744V23.5054H97.6357V15.0512L92.6796 23.9374L87.6612 15.0141V15.0265Z" fill="#061043"/>
<path d="M133.563 9.4726H137.034L141.465 18.2107L145.922 9.4726H149.33L141.49 24.1225L133.551 9.4726H133.563Z" fill="#061043"/>
<path d="M151.055 9.4726H154.176V23.5178H151.055V9.4726Z" fill="#061043"/>
<path d="M155.898 16.5075C155.898 12.41 159.207 9.20108 163.526 9.20108C167.845 9.20108 168.095 10.2378 169.481 11.8669L167.084 13.7182C166.26 12.6939 164.962 12.0768 163.514 12.0768C161.017 12.0768 158.994 13.9034 158.994 16.4952C158.994 19.087 161.017 20.9136 163.514 20.9136C166.01 20.9136 166.297 20.2718 167.121 19.2228L169.556 21.037C168.182 22.7279 166.023 23.7893 163.526 23.7893C159.207 23.7893 155.898 20.6051 155.898 16.5075Z" fill="#061043"/>
<path d="M126.635 15.5078V18.3094H130.143V19.3215C129.468 20.1978 128.17 20.9136 126.697 20.9136C124.2 20.9136 122.178 19.087 122.178 16.4952C122.178 13.9034 124.2 12.0768 126.697 12.0768C129.194 12.0768 129.431 12.6939 130.267 13.7182L132.664 11.8669C131.279 10.2255 129.156 9.20108 126.71 9.20108C122.39 9.20108 119.082 12.41 119.082 16.5075C119.082 20.6051 122.39 23.7893 126.71 23.7893C131.029 23.7893 131.853 22.3453 133.264 20.3088V15.4955H126.635V15.5078Z" fill="#061043"/>
<path d="M110.707 8.8555L102.455 23.5178H105.863L110.669 14.6069L114.065 20.8642L115.513 23.5178H118.846L110.707 8.8555Z" fill="#061043"/>
<path d="M112.066 20.7038H109.232V23.5054H112.066V20.7038Z" fill="#C11794"/>
<path d="M174.374 17.4455V14.7303V12.2619H182.488V9.4726H171.266V23.5178H182.501V20.7038H174.374V17.4455Z" fill="#061043"/>
<path d="M179.853 15.0882H177.02V17.8898H179.853V15.0882Z" fill="#061043"/>
<defs>
<linearGradient id="paint0_linear_4145_6983" x1="54.9787" y1="29.8368" x2="-26.4237" y2="-13.1851" gradientUnits="userSpaceOnUse">
<stop stop-color="#C11794"/>
<stop offset="0.4" stop-color="#854DF1"/>
<stop offset="1" stop-color="#16D0FB"/>
</linearGradient>
<linearGradient id="paint1_linear_4145_6983" x1="50.285" y1="38.7107" x2="-31.1174" y2="-4.31126" gradientUnits="userSpaceOnUse">
<stop stop-color="#C11794"/>
<stop offset="0.4" stop-color="#854DF1"/>
<stop offset="1" stop-color="#16D0FB"/>
</linearGradient>
<linearGradient id="paint2_linear_4145_6983" x1="119.195" y1="47.5846" x2="37.7925" y2="4.56261" gradientUnits="userSpaceOnUse">
<stop stop-color="#C11794"/>
<stop offset="0.4" stop-color="#854DF1"/>
<stop offset="1" stop-color="#16D0FB"/>
</linearGradient>
</defs>
</svg>
