<svg width="182" height="41" viewBox="0 0 182 41" fill="none" xmlns="http://www.w3.org/2000/svg">
<path d="M98.9219 32.829L99.3588 32.2119C99.9206 32.5451 100.632 32.7302 101.294 32.7179C102.018 32.7179 102.517 32.434 102.53 31.965C102.53 31.5331 102.243 31.3726 101.481 31.1998L100.794 31.0394C99.6834 30.7926 99.1591 30.3236 99.1591 29.5707C99.1591 28.7314 100.008 28.1637 101.156 28.1514C101.918 28.1514 102.655 28.3735 103.191 28.7068L102.779 29.3239C102.317 29.04 101.793 28.8672 101.231 28.8795C100.52 28.8795 100.02 29.1387 100.02 29.5954C100.02 29.9903 100.345 30.1878 101.032 30.3482L101.768 30.5087C102.879 30.7555 103.366 31.1752 103.366 31.965C103.366 32.8413 102.517 33.4337 101.269 33.4337C100.42 33.4337 99.5461 33.1992 98.9344 32.8166L98.9219 32.829Z" fill="white"/>
<path d="M108.584 28.2129H112.666V28.9411H109.383V30.2617H111.767V30.9651H109.383V32.6437H112.666V33.3718H108.584V28.2129Z" fill="white"/>
<path d="M117.322 30.7928C117.322 29.2994 118.521 28.127 120.106 28.127C121.692 28.127 121.717 28.4602 122.253 29.0403L121.629 29.5216C121.23 29.102 120.693 28.8675 120.106 28.8675C118.995 28.8675 118.134 29.682 118.134 30.7805C118.134 31.8789 118.995 32.7058 120.106 32.7058C121.217 32.7058 121.255 32.4713 121.654 32.0394L122.278 32.5083C121.729 33.1008 120.98 33.4463 120.106 33.4463C118.533 33.4463 117.322 32.2862 117.322 30.7805V30.7928Z" fill="white"/>
<path d="M127.297 30.8911V28.2129H128.108V30.8911C128.108 32.0512 128.608 32.693 129.706 32.693C130.805 32.693 131.304 32.0512 131.304 30.9034V28.2252H132.128V30.9034C132.128 32.4709 131.304 33.4335 129.706 33.4335C128.108 33.4335 127.297 32.4832 127.297 30.8911Z" fill="white"/>
<path d="M140.918 33.3718L138.421 31.1009V33.3718H137.609V28.2129H140.056C141.192 28.2129 141.954 28.7683 141.954 29.768C141.954 30.7677 141.255 31.2984 140.119 31.2984H139.682L142.066 33.3718H140.918ZM138.433 30.6072H140.131C140.73 30.6072 141.142 30.3481 141.142 29.768C141.142 29.1879 140.73 28.9287 140.131 28.9287H138.433V30.5949V30.6072Z" fill="white"/>
<path d="M147.283 28.2129H148.095V33.3718H147.283V28.2129Z" fill="white"/>
<path d="M154.936 28.9411H153.113V28.2129H157.557V28.9411H155.735V33.3718H154.936V28.9411Z" fill="white"/>
<path d="M164.061 31.1503L161.789 28.2129H162.75L164.461 30.4098L166.171 28.2129H167.132L164.86 31.1503V33.3718H164.049V31.1503H164.061Z" fill="white"/>
<path d="M45.0793 34.8047H38.8125V41.0004H45.0793V34.8047Z" fill="#C11794"/>
<path d="M47.8499 0H36.4647L21.4219 29.7318L26.8897 41L47.8499 0Z" fill="url(#paint0_linear_4192_1673)"/>
<path d="M25.9786 0H14.5935L0 30.1884L5.01845 41L25.9786 0Z" fill="url(#paint1_linear_4192_1673)"/>
<path d="M77.8233 0H66.6379L57.2002 20.5L47.6252 0H36.6895L56.601 41L77.8233 0Z" fill="url(#paint2_linear_4192_1673)"/>
<path d="M87.1612 14.5262V23.0051H84.0527V8.95996H87.1612L92.1422 17.9573L97.2106 8.95996H100.244V23.0051H97.1357V14.5509L92.1796 23.4371L87.1612 14.5138V14.5262Z" fill="white"/>
<path d="M133.063 8.97266H136.534L140.965 17.7108L145.422 8.97266H148.83L140.99 23.6226L133.051 8.97266H133.063Z" fill="white"/>
<path d="M150.553 8.97266H153.674V23.0178H150.553V8.97266Z" fill="white"/>
<path d="M155.396 16.0076C155.396 11.9101 158.705 8.70117 163.024 8.70117C167.343 8.70117 167.593 9.73789 168.979 11.367L166.582 13.2183C165.758 12.1939 164.46 11.5768 163.012 11.5768C160.515 11.5768 158.492 13.4035 158.492 15.9953C158.492 18.5871 160.515 20.4137 163.012 20.4137C165.508 20.4137 165.795 19.7719 166.619 18.7228L169.054 20.5371C167.68 22.228 165.521 23.2894 163.024 23.2894C158.705 23.2894 155.396 20.1051 155.396 16.0076Z" fill="white"/>
<path d="M126.135 15.0079V17.8095H129.643V18.8216C128.968 19.6979 127.67 20.4137 126.197 20.4137C123.7 20.4137 121.678 18.5871 121.678 15.9953C121.678 13.4035 123.7 11.5768 126.197 11.5768C128.694 11.5768 128.931 12.1939 129.767 13.2183L132.164 11.367C130.779 9.72555 128.656 8.70117 126.21 8.70117C121.89 8.70117 118.582 11.9101 118.582 16.0076C118.582 20.1051 121.89 23.2894 126.21 23.2894C130.529 23.2894 131.353 21.8454 132.764 19.8089V14.9956H126.135V15.0079Z" fill="white"/>
<path d="M110.207 8.35547L101.955 23.0177H105.363L110.169 14.1068L113.565 20.3642L115.013 23.0177H118.346L110.207 8.35547Z" fill="white"/>
<path d="M111.566 20.2041H108.732V23.0057H111.566V20.2041Z" fill="#C11794"/>
<path d="M173.874 16.9456V14.2303V11.7619H181.988V8.97266H170.766V23.0178H182.001V20.2038H173.874V16.9456Z" fill="white"/>
<path d="M179.353 14.5879H176.52V17.3895H179.353V14.5879Z" fill="white"/>
<defs>
<linearGradient id="paint0_linear_4192_1673" x1="54.4787" y1="29.3368" x2="-26.9237" y2="-13.6851" gradientUnits="userSpaceOnUse">
<stop stop-color="#C11794"/>
<stop offset="0.4" stop-color="#854DF1"/>
<stop offset="1" stop-color="#16D0FB"/>
</linearGradient>
<linearGradient id="paint1_linear_4192_1673" x1="49.785" y1="38.2107" x2="-31.6174" y2="-4.81126" gradientUnits="userSpaceOnUse">
<stop stop-color="#C11794"/>
<stop offset="0.4" stop-color="#854DF1"/>
<stop offset="1" stop-color="#16D0FB"/>
</linearGradient>
<linearGradient id="paint2_linear_4192_1673" x1="118.695" y1="47.0846" x2="37.2925" y2="4.06261" gradientUnits="userSpaceOnUse">
<stop stop-color="#C11794"/>
<stop offset="0.4" stop-color="#854DF1"/>
<stop offset="1" stop-color="#16D0FB"/>
</linearGradient>
</defs>
</svg>
