<svg width="17" height="10" viewBox="0 0 17 10" fill="none" xmlns="http://www.w3.org/2000/svg">
<path d="M8.253 6.58898L2.007 0.346981C1.78409 0.132592 1.48591 0.0142886 1.17665 0.0175344C0.867389 0.0207801 0.571763 0.145316 0.353398 0.364336C0.135034 0.583356 0.0113862 0.879352 0.00906714 1.18862C0.00674808 1.49789 0.125943 1.79571 0.340999 2.01798L7.417 9.09498C7.63162 9.30909 7.92058 9.43213 8.22368 9.43846C8.52677 9.4448 8.82062 9.33394 9.044 9.12898L16.165 2.02198C16.3801 1.79971 16.4992 1.50189 16.4969 1.19262C16.4946 0.883355 16.371 0.587357 16.1526 0.368337C15.9342 0.149317 15.6386 0.024783 15.3293 0.0215372C15.0201 0.0182914 14.7219 0.136593 14.499 0.350982L8.253 6.58898Z" fill="#BCB08F"/>
</svg>
