<svg width="19" height="15" viewBox="0 0 19 15" fill="none" xmlns="http://www.w3.org/2000/svg">
<g clip-path="url(#clip0_132_31)">
<path d="M17.715 5.32001H17.698C17.4579 5.32054 17.2277 5.41616 17.0579 5.58595C16.8882 5.75575 16.7925 5.98588 16.792 6.22601C16.7917 6.25006 16.7821 6.27306 16.7651 6.29007C16.748 6.30708 16.7251 6.31675 16.701 6.31701H1.92C1.89595 6.31675 1.87295 6.30708 1.85594 6.29007C1.83893 6.27306 1.82926 6.25006 1.829 6.22601C1.82847 5.98588 1.73285 5.75575 1.56306 5.58595C1.39326 5.41616 1.16312 5.32054 0.923 5.32001H0.906C0.665876 5.32054 0.435739 5.41616 0.265945 5.58595C0.0961514 5.75575 0.000528327 5.98588 0 6.22601V13.726C0.000528327 13.9661 0.0961514 14.1963 0.265945 14.3661C0.435739 14.5359 0.665876 14.6315 0.906 14.632H0.923C1.16312 14.6315 1.39326 14.5359 1.56306 14.3661C1.73285 14.1963 1.82847 13.9661 1.829 13.726V13.468C1.82926 13.4241 1.84684 13.382 1.87791 13.3509C1.90898 13.3198 1.95105 13.3023 1.995 13.302H16.626C16.6699 13.3023 16.712 13.3198 16.7431 13.3509C16.7742 13.382 16.7917 13.4241 16.792 13.468V13.726C16.7925 13.9661 16.8882 14.1963 17.0579 14.3661C17.2277 14.5359 17.4579 14.6315 17.698 14.632H17.715C17.9551 14.6315 18.1853 14.5359 18.3551 14.3661C18.5248 14.1963 18.6205 13.9661 18.621 13.726V6.22601C18.6205 5.98588 18.5248 5.75575 18.3551 5.58595C18.1853 5.41616 17.9551 5.32054 17.715 5.32001Z" fill="#BCB08F"/>
<path d="M2.16101 5.57H3.09601C3.13996 5.56974 3.18203 5.55216 3.2131 5.52109C3.24417 5.49002 3.26175 5.44795 3.26201 5.404V4.864C3.26254 4.68779 3.33277 4.51895 3.45737 4.39436C3.58196 4.26976 3.7508 4.19953 3.92701 4.199H7.98501C8.16122 4.19953 8.33006 4.26976 8.45465 4.39436C8.57925 4.51895 8.64948 4.68779 8.65001 4.864V5.404C8.65027 5.44795 8.66785 5.49002 8.69892 5.52109C8.72999 5.55216 8.77207 5.56974 8.81601 5.57H9.81601C9.85996 5.56974 9.90203 5.55216 9.9331 5.52109C9.96417 5.49002 9.98175 5.44795 9.98201 5.404V4.864C9.98254 4.68779 10.0528 4.51895 10.1774 4.39436C10.302 4.26976 10.4708 4.19953 10.647 4.199H14.7C14.8762 4.19953 15.0451 4.26976 15.1697 4.39436C15.2943 4.51895 15.3645 4.68779 15.365 4.864V5.404C15.3653 5.44795 15.3828 5.49002 15.4139 5.52109C15.445 5.55216 15.4871 5.56974 15.531 5.57H16.466C16.5543 5.57 16.639 5.53492 16.7015 5.47247C16.7639 5.41002 16.799 5.32532 16.799 5.237V1.33C16.798 0.977587 16.6575 0.639909 16.4083 0.390714C16.1591 0.141519 15.8214 0.00105514 15.469 0H3.15901C2.8066 0.00105514 2.46892 0.141519 2.21972 0.390714C1.97053 0.639909 1.83007 0.977587 1.82901 1.33V5.237C1.82901 5.32514 1.86396 5.40969 1.92619 5.47211C1.98842 5.53453 2.07287 5.56973 2.16101 5.57Z" fill="#BCB08F"/>
</g>
<defs>
<clipPath id="clip0_132_31">
<rect width="18.621" height="14.631" fill="white"/>
</clipPath>
</defs>
</svg>
