<svg width="19" height="19" viewBox="0 0 19 19" fill="none" xmlns="http://www.w3.org/2000/svg">
<g clip-path="url(#clip0_132_41)">
<path d="M18.279 12.73V17.3C18.2793 17.4286 18.2541 17.5561 18.205 17.675C18.1559 17.7939 18.0838 17.9019 17.9928 17.9928C17.9019 18.0838 17.7939 18.1559 17.675 18.205C17.5561 18.2541 17.4286 18.2793 17.3 18.279H12.73C12.5363 18.2787 12.347 18.2211 12.186 18.1134C12.025 18.0058 11.8994 17.8528 11.8252 17.6739C11.751 17.495 11.7314 17.2981 11.7689 17.108C11.8064 16.918 11.8994 16.7433 12.036 16.606L13.513 15.129L9.14 10.755L4.764 15.133L6.242 16.606C6.37864 16.7433 6.47158 16.918 6.50909 17.108C6.54661 17.2981 6.52702 17.495 6.45279 17.6739C6.37857 17.8528 6.25304 18.0058 6.09202 18.1134C5.931 18.2211 5.74171 18.2787 5.548 18.279H0.979002C0.850364 18.2793 0.72294 18.2541 0.604043 18.205C0.485147 18.1559 0.377118 18.0838 0.286157 17.9928C0.195196 17.9019 0.123093 17.7939 0.0739871 17.675C0.0248811 17.5561 -0.000261552 17.4286 2.05147e-06 17.3V12.73C-0.000209935 12.5361 0.0571155 12.3465 0.164722 12.1851C0.272329 12.0238 0.425379 11.898 0.6045 11.8237C0.783622 11.7494 0.980761 11.7299 1.17096 11.7677C1.36117 11.8055 1.53589 11.8989 1.673 12.036L3.15 13.514L7.526 9.14L3.149 4.762L1.673 6.243C1.53576 6.37959 1.36117 6.4725 1.17122 6.51005C0.981273 6.54759 0.784461 6.52809 0.605577 6.45399C0.426693 6.37989 0.273737 6.25451 0.165974 6.09365C0.058212 5.93278 0.000463258 5.74363 2.05147e-06 5.55V0.979002C-0.000261552 0.850364 0.0248811 0.72294 0.0739871 0.604043C0.123093 0.485147 0.195196 0.377118 0.286157 0.286157C0.377118 0.195195 0.485147 0.123093 0.604043 0.0739871C0.72294 0.0248812 0.850364 -0.000261552 0.979002 2.05147e-06H5.549C5.74271 0.000266367 5.932 0.0578728 6.09302 0.165559C6.25404 0.273246 6.37957 0.426192 6.45379 0.605117C6.52802 0.784041 6.54761 0.980935 6.51009 1.17098C6.47258 1.36102 6.37964 1.5357 6.243 1.673L4.766 3.15L9.14 7.524L13.515 3.15L12.037 1.673C11.9004 1.53576 11.8075 1.36117 11.77 1.17122C11.7324 0.981273 11.7519 0.784461 11.826 0.605577C11.9001 0.426693 12.0255 0.273737 12.1864 0.165974C12.3472 0.0582119 12.5364 0.000463258 12.73 2.05147e-06H17.3C17.4286 -0.000261552 17.5561 0.0248812 17.675 0.0739871C17.7939 0.123093 17.9019 0.195195 17.9928 0.286157C18.0838 0.377118 18.1559 0.485147 18.205 0.604043C18.2541 0.72294 18.2793 0.850364 18.279 0.979002V5.55C18.2792 5.74392 18.2219 5.93355 18.1143 6.09487C18.0067 6.2562 17.8536 6.38198 17.6745 6.45628C17.4954 6.53058 17.2982 6.55007 17.108 6.51229C16.9178 6.4745 16.7431 6.38113 16.606 6.244L15.13 4.766L10.753 9.14L15.13 13.518L16.606 12.041C16.7424 11.9032 16.9168 11.8091 17.1068 11.7706C17.2969 11.7321 17.4941 11.7509 17.6734 11.8248C17.8527 11.8986 18.0061 12.0241 18.1139 12.1853C18.2217 12.3465 18.2792 12.5361 18.279 12.73Z" fill="#BCB08F"/>
</g>
<defs>
<clipPath id="clip0_132_41">
<rect width="18.279" height="18.279" fill="white"/>
</clipPath>
</defs>
</svg>
