<svg width="21" height="18" viewBox="0 0 21 18" fill="none" xmlns="http://www.w3.org/2000/svg">
<g clip-path="url(#clip0_132_34)">
<path d="M19.489 8.94998H3.195V3.19498C3.19444 2.91794 3.28399 2.64823 3.45014 2.42654C3.61629 2.20485 3.85003 2.04321 4.1161 1.96599C4.38216 1.88878 4.66612 1.90019 4.92514 1.9985C5.18415 2.09681 5.40417 2.27668 5.552 2.51098C5.22305 3.01563 5.07134 3.61537 5.12076 4.21573C5.17019 4.81608 5.41794 5.38294 5.825 5.82698C5.7442 5.91833 5.70128 6.03705 5.705 6.15895C5.70871 6.28084 5.75878 6.39673 5.845 6.48298L6.297 6.93499C6.34149 6.97955 6.39433 7.01491 6.4525 7.03903C6.51067 7.06316 6.57303 7.07558 6.636 7.07558C6.69897 7.07558 6.76133 7.06316 6.8195 7.03903C6.87767 7.01491 6.93051 6.97955 6.975 6.93499L10.775 3.13498C10.8196 3.09049 10.8549 3.03765 10.8791 2.97948C10.9032 2.92131 10.9156 2.85896 10.9156 2.79598C10.9156 2.73301 10.9032 2.67066 10.8791 2.61249C10.8549 2.55432 10.8196 2.50147 10.775 2.45698L10.323 2.00498C10.2367 1.91877 10.1209 1.8687 9.99896 1.86498C9.87707 1.86127 9.75834 1.90418 9.667 1.98498C9.32634 1.67337 8.91172 1.45396 8.46247 1.34755C8.01322 1.24115 7.54424 1.25128 7.1 1.37698C6.71252 0.817341 6.15637 0.396124 5.51268 0.174765C4.86898 -0.0465946 4.1714 -0.0565189 3.52167 0.146439C2.87193 0.349397 2.30403 0.754621 1.90079 1.30302C1.49754 1.85141 1.28004 2.51429 1.28 3.19498V8.94998H0.958C0.704614 8.94998 0.461547 9.05036 0.282002 9.22916C0.102457 9.40796 0.00105798 9.6506 0 9.90399L0 10.543C0 10.7971 0.100932 11.0407 0.280592 11.2204C0.460252 11.4001 0.703923 11.501 0.958 11.501H1.277V12.779C1.27647 13.3184 1.39006 13.8518 1.61032 14.3442C1.83058 14.8366 2.15252 15.2768 2.555 15.636V16.936C2.555 17.1901 2.65593 17.4337 2.83559 17.6134C3.01525 17.7931 3.25892 17.894 3.513 17.894H4.152C4.40608 17.894 4.64975 17.7931 4.82941 17.6134C5.00907 17.4337 5.11 17.1901 5.11 16.936V16.617H15.335V16.936C15.335 17.1901 15.4359 17.4337 15.6156 17.6134C15.7953 17.7931 16.0389 17.894 16.293 17.894H16.932C17.1861 17.894 17.4297 17.7931 17.6094 17.6134C17.7891 17.4337 17.89 17.1901 17.89 16.936V15.636C18.2925 15.2768 18.6144 14.8366 18.8347 14.3442C19.0549 13.8518 19.1685 13.3184 19.168 12.779V11.502H19.487C19.7411 11.502 19.9847 11.4011 20.1644 11.2214C20.3441 11.0417 20.445 10.7981 20.445 10.544V9.90498C20.4442 9.65177 20.3432 9.40917 20.1641 9.23022C19.9849 9.05127 19.7422 8.95051 19.489 8.94998Z" fill="#BCB08F"/>
</g>
<defs>
<clipPath id="clip0_132_34">
<rect width="20.447" height="17.891" fill="white"/>
</clipPath>
</defs>
</svg>
