<svg width="17" height="17" viewBox="0 0 17 17" fill="none" xmlns="http://www.w3.org/2000/svg">
<path d="M12.272 -0.000976562H12.232C11.4686 0.00277548 10.7182 0.196752 10.0486 0.563412C9.37899 0.930072 8.81136 1.45785 8.397 2.09902C7.98264 1.45785 7.41501 0.930072 6.74541 0.563412C6.07582 0.196752 5.3254 0.00277548 4.562 -0.000976562H4.525C3.3215 0.0093079 2.17077 0.494556 1.3233 1.34914C0.475828 2.20373 0.000219763 3.35848 0 4.56202C0.0992427 6.49817 0.769011 8.36169 1.925 9.91802C3.79419 12.2726 5.96902 14.3674 8.392 16.147C10.815 14.3674 12.9898 12.2726 14.859 9.91802C16.0182 8.36272 16.6911 6.49912 16.793 4.56202C16.7928 3.35916 16.3177 2.20502 15.4711 1.35054C14.6245 0.496066 13.4748 0.0103563 12.272 -0.000976562Z" fill="white"/>
</svg>
