<svg width="79" height="79" viewBox="0 0 79 79" fill="none" xmlns="http://www.w3.org/2000/svg">
<path d="M6.61217 58.9181C1.69384 50.9059 -0.0821799 41.3558 1.62691 32.1111C3.33601 22.8664 8.40905 14.5825 15.8669 8.85838C23.3247 3.13421 32.6386 0.375569 42.0108 1.11491C51.383 1.85425 60.1491 6.03915 66.6172 12.8619C73.0852 19.6846 76.7966 28.6615 77.035 38.0598C77.2735 47.4581 74.022 56.6116 67.9082 63.7535C61.7944 70.8954 53.2518 75.5194 43.9291 76.733C34.6064 77.9466 25.1646 75.6637 17.4262 70.3251L2.10017 74.7161L6.61217 58.9181Z" stroke="white" stroke-width="2" stroke-linecap="round" stroke-linejoin="round"/>
<path d="M6.61328 58.7363C7.92728 60.7953 9.44165 62.7194 11.1343 64.4803" stroke="white" stroke-width="2" stroke-linecap="round" stroke-linejoin="round"/>
<path d="M53.9935 38.128H62.0725L39.0295 15.082L15.9805 38.128H24.0105" stroke="white" stroke-width="2" stroke-linecap="round" stroke-linejoin="round"/>
<path d="M23.4463 43.6782L23.4793 60.6472H54.5793V43.6782" stroke="white" stroke-width="2" stroke-linecap="round" stroke-linejoin="round"/>
<path d="M45.2723 38.1289H32.7793V51.9949H45.2723V38.1289Z" stroke="white" stroke-width="2" stroke-linecap="round" stroke-linejoin="round"/>
</svg>
