<svg xmlns="http://www.w3.org/2000/svg" width="15.008" height="19.511" viewBox="0 0 15.008 19.511">
  <path id="Icon_ionic-ios-lock" data-name="Icon ionic-ios-lock" d="M19.882,10.128H18.756V7.938a4.5,4.5,0,1,0-9-.061v2.251H8.626A1.882,1.882,0,0,0,6.75,12v9a1.882,1.882,0,0,0,1.876,1.876H19.882a1.882,1.882,0,0,0,1.876-1.876V12A1.882,1.882,0,0,0,19.882,10.128Zm-4.971,5.853v3.227a.672.672,0,0,1-.624.675.657.657,0,0,1-.689-.657V15.981a1.5,1.5,0,1,1,1.313,0Zm2.533-5.853H11.065V7.877a3.189,3.189,0,0,1,6.378,0Z" transform="translate(-6.75 -3.374)" fill="#fff"/>
</svg>
