<svg xmlns="http://www.w3.org/2000/svg" width="17.969" height="17.969" viewBox="0 0 17.969 17.969">
  <path id="Icon_awesome-phone-alt" data-name="Icon awesome-phone-alt" d="M17.456,12.7l-3.931-1.685a.842.842,0,0,0-.983.242L10.8,13.382A13.009,13.009,0,0,1,4.583,7.164L6.71,5.423a.84.84,0,0,0,.242-.983L5.268.509A.848.848,0,0,0,4.3.022L.653.864A.842.842,0,0,0,0,1.685,16.283,16.283,0,0,0,16.284,17.969a.842.842,0,0,0,.821-.653l.842-3.65a.852.852,0,0,0-.492-.969Z" transform="translate(0 0)" fill="#fff"/>
</svg>
