<svg enable-background="new 0 0 1366 768" viewBox="0 0 1366 768" xmlns="http://www.w3.org/2000/svg">
    <path d="m110.5 436.5h72.6v27.2h-106.1v-178h105.1v27.2h-71.6v48.3h63.6v26.9h-63.6z"/>
    <path d="m502.4 436.5h72.6v27.2h-106.2v-178h105.1v27.2h-71.6v48.3h63.7v26.9h-63.6z"/>
    <path d="m661.1 463.7v-178h33.3v178zm75.5-88.7 66.3 88.7h-42l-63.9-88.2 61.5-89.8h39.9z"/>
    <path d="m991.9 285.7v27.5h-45.2v150.5h-33.5v-150.5h-45.2v-27.5z"/>
    <path d="m1270.8 445.8h18.2v18.2h-18.2z"/>
    <path d="m1058.7 463.7 60.2-178h43l60.2 178h-35.9l-46.3-152.5-46.3 152.5z"/>
    <path d="m269.2 463.7v-86.8l61-.6s27.6-4.1 27.2-32.2-23-30.2-27.2-30.6-61-.4-61-.4v-27.3l61 .1s60.2 1.4 61 58.8c0 0 3.2 53.1-61.3 58.5l-27.5.1v60.5h-33.2z"/>
</svg>