<svg id="Icon_awesome-linkedin-in" data-name="Icon awesome-linkedin-in" xmlns="http://www.w3.org/2000/svg" width="27.693" height="27.692" viewBox="0 0 27.693 27.692">
  <path id="Icon_awesome-linkedin-in-2" data-name="Icon awesome-linkedin-in" d="M6.2,27.693H.457V9.2H6.2ZM3.325,6.682A3.341,3.341,0,1,1,6.65,3.326,3.353,3.353,0,0,1,3.325,6.682ZM27.687,27.693H21.958v-9c0-2.145-.043-4.9-2.985-4.9-2.985,0-3.442,2.33-3.442,4.741v9.155H9.8V9.2H15.3v2.522h.08a6.033,6.033,0,0,1,5.432-2.986c5.811,0,6.879,3.826,6.879,8.8V27.693Z" transform="translate(0 0)" fill="#fff"/>
</svg>
