<svg width="31" height="31" viewBox="0 0 31 31" fill="none" xmlns="http://www.w3.org/2000/svg">
<path d="M8.3 1.5H21.9C22.793 1.5 23.6772 1.67589 24.5022 2.01762C25.3273 2.35935 26.0769 2.86024 26.7083 3.49167C27.3398 4.12311 27.8406 4.87274 28.1824 5.69775C28.5241 6.52277 28.7 7.40701 28.7 8.3V21.9C28.7 22.793 28.5241 23.6772 28.1824 24.5022C27.8406 25.3273 27.3398 26.0769 26.7083 26.7083C26.0769 27.3398 25.3273 27.8406 24.5022 28.1824C23.6772 28.5241 22.793 28.7 21.9 28.7H8.3C7.40701 28.7 6.52277 28.5241 5.69775 28.1824C4.87274 27.8406 4.12311 27.3398 3.49167 26.7083C2.86024 26.0769 2.35935 25.3273 2.01762 24.5022C1.67589 23.6772 1.5 22.793 1.5 21.9V8.3C1.5 6.49653 2.21643 4.76692 3.49167 3.49167C4.76692 2.21643 6.49653 1.5 8.3 1.5Z" stroke="white" stroke-width="3" stroke-linecap="round" stroke-linejoin="round"/>
<path d="M20.541 14.2428C20.709 15.3745 20.5159 16.5304 19.9892 17.546C19.4625 18.5617 18.629 19.3854 17.6072 19.9001C16.5854 20.4147 15.4273 20.5941 14.2977 20.4128C13.168 20.2314 12.1243 19.6986 11.315 18.8899C10.5056 18.0813 9.97184 17.038 9.78951 15.9086C9.60717 14.7791 9.78558 13.6209 10.2994 12.5986C10.8131 11.5764 11.6361 10.7421 12.6513 10.2145C13.6665 9.68694 14.8222 9.49283 15.954 9.65983C17.1085 9.83106 18.1773 10.369 19.0025 11.1943C19.8278 12.0196 20.3658 13.0884 20.537 14.2428H20.541Z" stroke="white" stroke-width="3" stroke-linecap="round" stroke-linejoin="round"/>
</svg>
